<svg width="34" height="35" viewBox="0 0 34 35" fill="none" xmlns="http://www.w3.org/2000/svg">
<g clip-path="url(#clip0_1022_172)">
<path fill-rule="evenodd" clip-rule="evenodd" d="M11.6574 0.440582C9.73947 0.440582 7.90016 1.20575 6.54399 2.56775L0 9.13986V12.1482C0 14.2735 0.909024 16.1856 2.35791 17.5137C0.909024 18.8419 0 20.754 0 22.8793V25.8876L6.54399 32.4598C7.90016 33.8218 9.73947 34.5869 11.6574 34.5869C13.7737 34.5869 15.6776 33.674 17 32.2189C18.3224 33.674 20.2263 34.5869 22.3426 34.5869C24.2605 34.5869 26.0998 33.8218 27.456 32.4598L34 25.8876V22.8793C34 20.754 33.091 18.8419 31.6421 17.5137C33.091 16.1856 34 14.2735 34 12.1482V9.13986L27.456 2.56775C26.0998 1.20575 24.2605 0.440582 22.3426 0.440582C20.2263 0.440582 18.3224 1.35352 17 2.80864C15.6776 1.35352 13.7737 0.440582 11.6574 0.440582ZM21.895 17.5137C21.8135 17.439 21.7335 17.3623 21.6551 17.2836L17 12.6084L12.3449 17.2836C12.2665 17.3623 12.1865 17.439 12.105 17.5137C12.1865 17.5884 12.2665 17.6652 12.3449 17.7439L17 22.419L21.6551 17.7439C21.7335 17.6652 21.8135 17.5884 21.895 17.5137ZM18.8889 25.8876V27.3243C18.8889 29.2399 20.4352 30.7929 22.3426 30.7929C23.2586 30.7929 24.137 30.4275 24.7847 29.777L30.2223 24.316V22.8793C30.2223 20.9637 28.6759 19.4107 26.7685 19.4107C25.8526 19.4107 24.9741 19.7762 24.3264 20.4267L18.8889 25.8876ZM15.1111 25.8876L9.6736 20.4267C9.0259 19.7762 8.14745 19.4107 7.23148 19.4107C5.32405 19.4107 3.77777 20.9637 3.77777 22.8793V24.316L9.21528 29.777C9.86298 30.4275 10.7415 30.7929 11.6574 30.7929C13.5648 30.7929 15.1111 29.2399 15.1111 27.3243V25.8876ZM15.1111 7.70318V9.13986L9.6736 14.6008C9.0259 15.2513 8.14745 15.6167 7.23148 15.6167C5.32405 15.6167 3.77777 14.0638 3.77777 12.1482V10.7114L9.21528 5.25054C9.86298 4.60006 10.7415 4.23462 11.6574 4.23462C13.5648 4.23462 15.1111 5.78755 15.1111 7.70318ZM24.3264 14.6008L18.8889 9.13986V7.70318C18.8889 5.78755 20.4352 4.23462 22.3426 4.23462C23.2586 4.23462 24.137 4.60006 24.7847 5.25054L30.2223 10.7114V12.1482C30.2223 14.0638 28.6759 15.6167 26.7685 15.6167C25.8526 15.6167 24.9741 15.2513 24.3264 14.6008Z" fill="#63801D"/>
</g>
<defs>
<clipPath id="clip0_1022_172">
<rect width="34" height="35" fill="white"/>
</clipPath>
</defs>
</svg>
