<svg width="35" height="35" viewBox="0 0 35 35" fill="none" xmlns="http://www.w3.org/2000/svg">
<path d="M4.37509 12.0312C4.37494 10.7622 4.69022 9.51302 5.29259 8.39607C5.89497 7.27912 6.76553 6.32941 7.82599 5.63237C8.88644 4.93533 10.1035 4.51282 11.3678 4.40283C12.632 4.29285 13.9038 4.49884 15.0687 5.00229C16.2336 5.50573 17.2551 6.29084 18.0413 7.28699C18.8275 8.28314 19.3537 9.4591 19.5727 10.7091C19.7917 11.9591 19.6966 13.2439 19.2958 14.448C18.8951 15.6521 18.2013 16.7377 17.277 17.6072C19.0198 18.4533 20.5329 19.707 21.6882 21.2622C22.8436 22.8173 23.607 24.628 23.9138 26.5409C23.9476 26.7538 23.9391 26.9712 23.8888 27.1808C23.8385 27.3904 23.7475 27.588 23.6208 27.7624C23.4942 27.9367 23.3344 28.0845 23.1507 28.1971C22.9669 28.3098 22.7628 28.3851 22.5499 28.4189C22.3371 28.4526 22.1196 28.4441 21.9101 28.3938C21.7005 28.3436 21.5029 28.2525 21.3285 28.1259C21.1541 27.9992 21.0064 27.8395 20.8937 27.6557C20.7811 27.472 20.7057 27.2678 20.672 27.055C20.3439 24.9994 19.2937 23.1281 17.71 21.7772C16.1264 20.4262 14.1129 19.6841 12.0313 19.6841C9.94974 19.6841 7.93633 20.4262 6.35266 21.7772C4.76899 23.1281 3.71882 24.9994 3.39072 27.055C3.35682 27.2678 3.28133 27.4719 3.16855 27.6556C3.05577 27.8393 2.90792 27.999 2.73343 28.1255C2.55895 28.2521 2.36124 28.343 2.15161 28.3932C1.94198 28.4433 1.72452 28.4517 1.51165 28.4178C1.29879 28.3839 1.09469 28.3084 0.910997 28.1956C0.727308 28.0828 0.56763 27.935 0.441081 27.7605C0.314533 27.586 0.223591 27.3883 0.173448 27.1787C0.123306 26.969 0.114944 26.7516 0.148842 26.5387C0.454594 24.626 1.21764 22.8154 2.37312 21.2608C3.52861 19.7062 5.04236 18.4535 6.78572 17.6093C6.02447 16.8933 5.41787 16.029 5.00329 15.0697C4.58871 14.1104 4.37492 13.0763 4.37509 12.0312ZM24.0626 8.74997C25.3336 8.75085 26.5769 9.12067 27.6418 9.81451C28.7067 10.5084 29.5472 11.4964 30.0614 12.6587C30.5756 13.821 30.7414 15.1076 30.5386 16.3623C30.3357 17.6169 29.7731 18.7858 28.9188 19.7268C30.2511 20.3868 31.4348 21.3115 32.3976 22.4443C33.3604 23.5772 34.0822 24.8944 34.5188 26.3156C34.6056 26.5914 34.6178 26.8852 34.5542 27.1672C34.4907 27.4492 34.3536 27.7094 34.157 27.9213C33.9604 28.1333 33.7112 28.2894 33.4348 28.3739C33.1583 28.4584 32.8644 28.4683 32.5829 28.4025C32.3015 28.3374 32.0422 28.1991 31.8313 28.0017C31.6204 27.8043 31.4654 27.5546 31.382 27.2781C30.9893 26.0101 30.2747 24.8656 29.3078 23.9562C28.3409 23.0468 27.1547 22.4036 25.8651 22.0893C25.5069 22.0029 25.1882 21.7983 24.9604 21.5086C24.7326 21.2189 24.609 20.861 24.6095 20.4925V19.7225C24.6093 19.417 24.6944 19.1176 24.8551 18.8579C25.0159 18.5982 25.246 18.3885 25.5195 18.2525C26.1826 17.9238 26.7152 17.3806 27.0307 16.711C27.3462 16.0415 27.426 15.285 27.2572 14.5643C27.0885 13.8437 26.681 13.2012 26.1011 12.7414C25.5211 12.2815 24.8027 12.0313 24.0626 12.0312C23.6275 12.0312 23.2102 11.8584 22.9025 11.5507C22.5948 11.243 22.422 10.8257 22.422 10.3906C22.422 9.95547 22.5948 9.53817 22.9025 9.23049C23.2102 8.92282 23.6275 8.74997 24.0626 8.74997ZM12.0313 7.65622C11.4487 7.64304 10.8693 7.7464 10.3272 7.96022C9.7851 8.17404 9.29116 8.49401 8.8744 8.90135C8.45764 9.30869 8.12646 9.79519 7.90031 10.3323C7.67415 10.8694 7.55758 11.4462 7.55743 12.029C7.55729 12.6118 7.67357 13.1887 7.89946 13.7259C8.12534 14.2631 8.45628 14.7498 8.87284 15.1573C9.28939 15.5649 9.78317 15.8851 10.3252 16.0992C10.8672 16.3133 11.4465 16.4169 12.0292 16.404C13.1723 16.3788 14.26 15.907 15.0597 15.0897C15.8593 14.2724 16.3071 13.1746 16.3074 12.0312C16.3077 10.8878 15.8604 9.78975 15.0612 8.97207C14.262 8.15439 13.1744 7.68207 12.0313 7.65622Z" fill="#63801D"/>
</svg>
