<svg width="36" height="36" viewBox="0 0 36 36" fill="none" xmlns="http://www.w3.org/2000/svg">
<path fill-rule="evenodd" clip-rule="evenodd" d="M13.6251 31.1251C13.6251 30.7383 13.7787 30.3674 14.0522 30.0939C14.3257 29.8204 14.6966 29.6667 15.0834 29.6667H20.9167C21.3035 29.6667 21.6745 29.8204 21.9479 30.0939C22.2214 30.3674 22.3751 30.7383 22.3751 31.1251C22.3751 31.5119 22.2214 31.8828 21.9479 32.1563C21.6745 32.4298 21.3035 32.5834 20.9167 32.5834H15.0834C14.6966 32.5834 14.3257 32.4298 14.0522 32.1563C13.7787 31.8828 13.6251 31.5119 13.6251 31.1251ZM13.6251 22.9949C14.0119 22.9949 14.3828 23.1485 14.6563 23.422C14.9298 23.6955 15.0834 24.0664 15.0834 24.4532V25.0336C15.0834 25.579 15.5253 26.0209 16.0707 26.0209H19.9295C20.1913 26.0209 20.4424 25.9169 20.6276 25.7317C20.8127 25.5466 20.9167 25.2955 20.9167 25.0336V24.5626C20.9167 24.1758 21.0704 23.8049 21.3439 23.5314C21.6174 23.2579 21.9883 23.1042 22.3751 23.1042C22.7619 23.1042 23.1328 23.2579 23.4063 23.5314C23.6798 23.8049 23.8334 24.1758 23.8334 24.5626V25.0336C23.8336 25.5464 23.7328 26.0541 23.5366 26.5278C23.3405 27.0016 23.053 27.432 22.6904 27.7946C22.3278 28.1571 21.8974 28.4447 21.4237 28.6408C20.9499 28.8369 20.4422 28.9378 19.9295 28.9376H16.0707C15.558 28.9378 15.0502 28.8369 14.5765 28.6408C14.1028 28.4447 13.6723 28.1571 13.3098 27.7946C12.9472 27.432 12.6597 27.0016 12.4635 26.5278C12.2674 26.0541 12.1666 25.5464 12.1667 25.0336V24.4532C12.1667 24.0664 12.3204 23.6955 12.5939 23.422C12.8674 23.1485 13.2383 22.9949 13.6251 22.9949Z" fill="#63801D"/>
<path d="M21.2491 25.0672C21.4489 25.6797 22.1096 26.0209 22.7002 25.7613C25.1554 24.6807 27.1633 22.787 28.3856 20.3991C29.6079 18.0112 29.97 15.275 29.4108 12.6514C28.8517 10.0278 27.4055 7.67698 25.3158 5.99493C23.2261 4.31288 20.6206 3.40235 17.9381 3.41667C15.2556 3.431 12.66 4.36931 10.5884 6.07358C8.51679 7.77785 7.09578 10.144 6.56469 12.7734C6.0336 15.4029 6.42487 18.135 7.6726 20.5097C8.92034 22.8844 10.9483 24.7566 13.415 25.8109C14.0071 26.0647 14.6648 25.7176 14.8587 25.1022L14.9856 24.6968C15.1781 24.0828 14.831 23.4338 14.2477 23.1626C12.4112 22.3097 10.9201 20.8566 10.02 19.0428C9.11994 17.229 8.86456 15.1627 9.29598 13.1844C9.7274 11.206 10.8199 9.43367 12.3934 8.15931C13.9669 6.88495 15.9276 6.18463 17.9525 6.17374C19.9773 6.16285 21.9454 6.84204 23.5325 8.0994C25.1197 9.35676 26.2312 11.1173 26.6838 13.0909C27.1365 15.0645 26.9034 17.1334 26.0229 18.9568C25.1423 20.7801 23.6669 22.2491 21.8398 23.1218C21.2579 23.3988 20.9181 24.0507 21.1179 24.6647L21.2491 25.0672Z" fill="#63801D"/>
<path fill-rule="evenodd" clip-rule="evenodd" d="M15.165 13.7359C15.2281 13.5551 15.3263 13.3885 15.4539 13.2457C15.5815 13.1029 15.7359 12.9865 15.9085 12.9034C16.081 12.8203 16.2682 12.7719 16.4594 12.7611C16.6506 12.7503 16.8421 12.7773 17.0229 12.8405L18.3441 13.3028L18.4083 13.3247C18.7291 13.4355 19.1054 13.5667 19.4029 13.7228C19.7441 13.9022 20.3041 14.2769 20.4922 15.028C20.6789 15.779 20.361 16.3726 20.1452 16.6905C19.9556 16.9676 19.6843 17.2607 19.4554 17.5101L19.4087 17.5597L19.2585 17.723L19.9075 17.9344C20.2656 18.0613 20.5601 18.3228 20.7283 18.6635C20.8965 19.0042 20.9251 19.397 20.8081 19.7585C20.691 20.1199 20.4375 20.4214 20.1015 20.5988C19.7655 20.7762 19.3736 20.8154 19.0091 20.7082L17.9256 20.3582L17.86 20.3363C17.5106 20.2346 17.1694 20.1069 16.8391 19.9542C16.492 19.7822 15.9131 19.4147 15.7133 18.6519C15.5135 17.8907 15.8387 17.2869 16.056 16.9661C16.2485 16.6847 16.5227 16.3872 16.7589 16.1319L16.8056 16.0809L16.9645 15.9088L16.0604 15.5938C15.8796 15.5306 15.713 15.4324 15.5702 15.3049C15.4273 15.1773 15.311 15.0228 15.2279 14.8503C15.1447 14.6778 15.0964 14.4906 15.0856 14.2994C15.0748 14.1082 15.1017 13.9167 15.165 13.7359Z" fill="#63801D"/>
</svg>
