<svg width="43" height="43" viewBox="0 0 43 43" fill="none" xmlns="http://www.w3.org/2000/svg">
<path d="M14.2365 4.13623H28.7967C34.3434 4.13623 38.8502 8.64295 38.8502 14.1897V28.7498C38.8502 31.4162 37.791 33.9733 35.9056 35.8587C34.0202 37.7441 31.463 38.8033 28.7967 38.8033H14.2365C8.68982 38.8033 4.18311 34.2966 4.18311 28.7498V14.1897C4.18311 11.5233 5.2423 8.9662 7.12769 7.08082C9.01308 5.19543 11.5702 4.13623 14.2365 4.13623ZM13.8899 7.60294C12.2349 7.60294 10.6477 8.26037 9.47748 9.43061C8.30724 10.6008 7.64981 12.188 7.64981 13.843V29.0965C7.64981 32.5459 10.4405 35.3366 13.8899 35.3366H29.1434C30.7983 35.3366 32.3855 34.6791 33.5558 33.5089C34.726 32.3387 35.3834 30.7515 35.3834 29.0965V13.843C35.3834 10.3936 32.5927 7.60294 29.1434 7.60294H13.8899ZM30.6167 10.203C31.1914 10.203 31.7425 10.4312 32.1488 10.8376C32.5551 11.2439 32.7834 11.795 32.7834 12.3697C32.7834 12.9443 32.5551 13.4954 32.1488 13.9017C31.7425 14.3081 31.1914 14.5363 30.6167 14.5363C30.0421 14.5363 29.491 14.3081 29.0846 13.9017C28.6783 13.4954 28.45 12.9443 28.45 12.3697C28.45 11.795 28.6783 11.2439 29.0846 10.8376C29.491 10.4312 30.0421 10.203 30.6167 10.203ZM21.5166 12.803C23.8152 12.803 26.0196 13.7161 27.645 15.3414C29.2703 16.9668 30.1834 19.1712 30.1834 21.4698C30.1834 23.7683 29.2703 25.9727 27.645 27.5981C26.0196 29.2234 23.8152 30.1365 21.5166 30.1365C19.2181 30.1365 17.0136 29.2234 15.3883 27.5981C13.763 25.9727 12.8499 23.7683 12.8499 21.4698C12.8499 19.1712 13.763 16.9668 15.3883 15.3414C17.0136 13.7161 19.2181 12.803 21.5166 12.803ZM21.5166 16.2697C20.1375 16.2697 18.8148 16.8176 17.8396 17.7928C16.8644 18.768 16.3166 20.0906 16.3166 21.4698C16.3166 22.8489 16.8644 24.1716 17.8396 25.1467C18.8148 26.122 20.1375 26.6698 21.5166 26.6698C22.8958 26.6698 24.2184 26.122 25.1936 25.1467C26.1688 24.1716 26.7167 22.8489 26.7167 21.4698C26.7167 20.0906 26.1688 18.768 25.1936 17.7928C24.2184 16.8176 22.8958 16.2697 21.5166 16.2697Z" fill="black"/>
</svg>
